SplineFontDB: 3.2
FontName: GortonDigitalModified
FullName: Gorton Digital Modified
FamilyName: Gorton Digital Modified
Weight: Regular
Copyright: This digital file is copyright 2017 R. S. Bartgis. It was updated with some additional glyphs/fixes by Michael Fehrenbach in the summer of 2025.
Version: 2025 08 21
StrokeWidth: 210
ItalicAngle: -15
UnderlinePosition: -420
UnderlineWidth: 210
Ascent: 2520
Descent: 1004
InvalidEm: 0
LayerCount: 2
Layer: 0 0 "Back" 1
Layer: 1 0 "Fore" 0
XUID: [1021 183 -1240125943 8496]
StyleMap: 0x0040
FSType: 0
OS2Version: 0
OS2_WeightWidthSlopeOnly: 0
OS2_UseTypoMetrics: 1
CreationTime: 1506406980
ModificationTime: 1756249335
PfmFamily: 33
TTFWeight: 400
TTFWidth: 5
LineGap: 420
VLineGap: 0
OS2TypoAscent: 420
OS2TypoAOffset: 1
OS2TypoDescent: 420
OS2TypoDOffset: 1
OS2TypoLinegap: 420
OS2WinAscent: 420
OS2WinAOffset: 1
OS2WinDescent: 420
OS2WinDOffset: 1
HheadAscent: 0
HheadAOffset: 1
HheadDescent: 0
HheadDOffset: 1
OS2CapHeight: 2520
OS2XHeight: 1430
OS2Vendor: 'PfEd'
Lookup: 258 0 0 "'kern' Horizontal Kerning in Latin lookup 0" { } ['kern' ('DFLT' <'dflt' > 'latn' <'dflt' > ) ]
MarkAttachClasses: 1
DEI: 91125
LangName: 1033
Encoding: UnicodeFull
UnicodeInterp: none
NameList: AGL For New Fonts
DisplaySize: -48
AntiAlias: 1
FitToEm: 0
WinInfo: 16 16 12
BeginPrivate: 0
EndPrivate
Grid
846.349609375 4282 m 0
 846.349609375 -2766 l 1024
882.349609375 4282 m 0
 882.349609375 -2766 l 1024
-3596 1260 m 0
 6976 1260 l 1024
  Named: "Half"
471 4282 m 0
 471 -2766 l 1024
-3524 1434 m 0
 7048 1434 l 1024
68.5001220703 4282 m 0
 68.5001220703 -2766 l 1024
EndSplineSet
TeXData: 1 0 681878 599186 299593 199728 0 -412297 199728 783286 444596 497025 792723 393216 433062 380633 303038 157286 324010 404750 52429 2506097 1059062 262144
AnchorClass2: "Origin"""  "asdf""" 
BeginChars: 1114112 129

StartChar: A
Encoding: 65 65 0
Width: 1791
VWidth: 0
Flags: HW
LayerCount: 2
Back
SplineSet
141 0 m 4
 964 2520 l 4
 1069 2520 l 4
 1888 0 l 4
 1614 840 l 4
 415 840 l 4
 141 0 l 4
EndSplineSet
Fore
SplineSet
0 0 m 4
 843 2520 l 4
 948 2520 l 4
 1791 0 l 4
 1509 840 l 4
 282 840 l 4
 0 0 l 4
EndSplineSet
Validated: 1
EndChar

StartChar: B
Encoding: 66 66 1
Width: 1617
VWidth: 0
Flags: HW
LayerCount: 2
Fore
SplineSet
0 0 m 0
 0 2520 l 0
 0 2520 578 2520 948 2520 c 27
 1274 2520 1539 2255 1539 1929 c 3
 1539 1603 1274 1338 948 1338 c 27
 578 1338 0 1338 0 1338 c 0
 0 1338 578 1338 948 1338 c 27
 1317 1338 1617 1038 1617 669 c 27
 1617 300 1317 0 948 0 c 27
 578 0 0 0 0 0 c 0
EndSplineSet
Validated: 5
EndChar

StartChar: O
Encoding: 79 79 2
Width: 1813
VWidth: 0
Flags: HW
HStem: 0 21G<658.5 1157.5> 0 21G<658.5 1157.5> 2500 20G<655.5 1154.5>
VStem: 0 1813<798.352 1721.65>
LayerCount: 2
Fore
SplineSet
905 2520 m 0xb0
 1404 2520 1813 1955 1813 1260 c 0
 1813 565 1407 0 908 0 c 0
 409 0 0 565 0 1260 c 0
 0 1955 406 2520 905 2520 c 0xb0
EndSplineSet
Validated: 1
EndChar

StartChar: D
Encoding: 68 68 3
Width: 1603
VWidth: 0
Flags: HW
LayerCount: 2
Fore
SplineSet
0 0 m 9
 0 983 0 1538 0 2521 c 17
 0 2521 199 2520 698 2520 c 3
 1197 2520 1603 1955 1603 1260 c 3
 1603 565 1197 0 698 0 c 3
 396 0 0 0 0 0 c 9
EndSplineSet
Validated: 1
EndChar

StartChar: zero
Encoding: 48 48 4
Width: 1810
VWidth: 0
Flags: HW
LayerCount: 2
Fore
SplineSet
905 2520 m 0
 1404 2520 1810 1955 1810 1260 c 0
 1810 565 1404 0 905 0 c 0
 406 0 0 565 0 1260 c 0
 0 1955 406 2520 905 2520 c 0
EndSplineSet
Validated: 1
EndChar

StartChar: I
Encoding: 73 73 5
Width: 0
VWidth: 0
Flags: HW
HStem: 0 21G<0 1> 0 21G<0 1> 2500 20G<0 1>
VStem: 0 1<0 2520>
LayerCount: 2
Fore
SplineSet
1 2520 m 5xb0
 1 0 l 5
 0 0 l 5
 0 2520 l 5
 1 2520 l 5xb0
EndSplineSet
Validated: 1
EndChar

StartChar: one
Encoding: 49 49 6
Width: 285
VWidth: 0
Flags: HW
LayerCount: 2
Back
SplineSet
1033 2520 m 1
 1033 0 l 1
 1032 0 l 1
 1032 2520 l 1
 1033 2520 l 1
EndSplineSet
Fore
SplineSet
290 0 m 1
 290 2520 l 1
 -106 2094 l 1049
EndSplineSet
EndChar

StartChar: E
Encoding: 69 69 7
Width: 1630
VWidth: 0
Flags: HW
LayerCount: 2
Fore
SplineSet
0 0 m 25
 0 2520 l 25
 1562 2520 l 1
 1562 2519 l 1
 1 2519 l 1
 1 1339 l 25
 1109 1339 l 5
 1109 1338 l 5
 1 1338 l 1
 1 1 l 1
 1630 1 l 1
 1630 0 l 1
 0 0 l 25
EndSplineSet
Validated: 1
EndChar

StartChar: F
Encoding: 70 70 8
Width: 1562
VWidth: 0
Flags: HW
LayerCount: 2
Fore
SplineSet
0 0 m 29
 0 2520 l 25
 1562 2520 l 1
 1562 2519 l 1
 1 2519 l 1
 1 1339 l 25
 1109 1339 l 1
 1109 1338 l 1
 1 1338 l 1
 1 0 l 1
 0 0 l 29
EndSplineSet
Validated: 1
EndChar

StartChar: H
Encoding: 72 72 9
Width: 1630
VWidth: 0
Flags: HW
LayerCount: 2
Fore
SplineSet
0 0 m 25
 0 2520 l 25
 1 2520 l 25
 1 1339 l 25
 1629 1339 l 25
 1629 2520 l 25
 1630 2520 l 25
 1630 0 l 25
 1629 0 l 25
 1629 1338 l 25
 1 1338 l 25
 1 0 l 25
 0 0 l 25
EndSplineSet
Validated: 1
EndChar

StartChar: L
Encoding: 76 76 10
Width: 1630
VWidth: 0
Flags: HW
LayerCount: 2
Fore
SplineSet
0 0 m 29
 0 2520 l 25
 1 2520 l 25
 1 1 l 25
 1630 1 l 25
 1630 0 l 25
 0 0 l 29
EndSplineSet
Validated: 1
EndChar

StartChar: T
Encoding: 84 84 11
Width: 1890
VWidth: 0
Flags: HW
LayerCount: 2
Fore
SplineSet
0 2520 m 25
 1890 2520 l 25
 1890 2519 l 25
 946 2519 l 25
 946 0 l 25
 946 0 l 25
 945 2519 l 25
 0 2519 l 25
 0 2520 l 25
EndSplineSet
Validated: 5
EndChar

StartChar: C
Encoding: 67 67 12
Width: 1703
VWidth: 0
Flags: HW
LayerCount: 2
Fore
SplineSet
1703 760 m 4
 1666.48174379 342.5944215 1345 5.3102136071e-14 905 0 c 4
 406 -6.02226497715e-14 0 565 0 1260 c 4
 0 1955 406 2520 905 2520 c 4
 1327 2520 1601.06167347 2190.96867795 1670 1800 c 1028
EndSplineSet
EndChar

StartChar: G
Encoding: 71 71 13
Width: 1591
VWidth: 0
Flags: HW
LayerCount: 2
Back
SplineSet
1591 1890 m 25
 1332 2856 l 1049
4262 1063 m 0
 4949 1063 l 1
 4948 439 l 0
 4781.90039062 170.33984375 4535.99023438 0 4262 0 c 0
 3763 0 3357 565 3357 1260 c 0
 3357 1955 3763 2520 4262 2520 c 0
 4641 2520 4948 2238 4948 1890 c 1024
905 2520 m 0
 1084.62 2520 1252.58 2446.79 1394 2320.66 c 1
 1434.11923714 2284.87795715 1472.10245043 2244.83691749 1507.61 2201 c 1
 1694.64953389 1970.08717965 1813 1633.85157875 1813 1260 c 0
 1813 565 1407 0 908 0 c 0
 409 0 0 565 0 1260 c 0
 0 1955 406 2520 905 2520 c 0
EndSplineSet
Fore
SplineSet
990 1063 m 0
 1592 1063 l 1
 1591 439 l 0
 1424.9 170.34 1178.99 0 905 0 c 0
 406 0 0 565 0 1260 c 0
 0 1955 406 2520 905 2520 c 0
 1084.62 2520 1252.51206446 2446.72115221 1394 2320.66 c 0
 1468.66381823 2254.13696453 1534.43078551 2117.60273745 1591 1905 c 1024
EndSplineSet
Validated: 3
EndChar

StartChar: J
Encoding: 74 74 14
Width: 1214
VWidth: 0
Flags: HW
LayerCount: 2
Fore
SplineSet
1213.515625 2520 m 1
 1213.515625 529 l 17
 1186.44140625 232.830078125 907.814453125 0 627.680664062 0 c 1
 310.889648438 0 50.318359375 232.830078125 23.2451171875 529 c 1
 0 780 l 1049
EndSplineSet
Validated: 3
EndChar

StartChar: K
Encoding: 75 75 15
Width: 1562
VWidth: 0
Flags: HW
LayerCount: 2
Fore
SplineSet
0 0 m 25
 0 2520 l 1
 1 2520 l 1
 1 958 l 9
 1562 2520 l 1
 565 1522 l 25
 1630 0 l 1049
EndSplineSet
EndChar

StartChar: M
Encoding: 77 77 16
Width: 1961
VWidth: 0
Flags: HW
LayerCount: 2
Fore
SplineSet
0 0 m 25
 0 2520 l 25
 105 2520 l 25
 954.5 53 l 17
 1007.46 53 l 1
 1856.91 2520 l 9
 1960.91015625 2520 l 29
 1961.91 0 l 1049
EndSplineSet
Validated: 3
EndChar

StartChar: N
Encoding: 78 78 17
Width: 1630
VWidth: 0
Flags: HW
LayerCount: 2
Fore
SplineSet
0 0 m 25
 0 2520 l 25
 105 2520 l 25
 1525 0 l 25
 1630 0 l 25
 1630 2520 l 1049
EndSplineSet
Validated: 3
EndChar

StartChar: V
Encoding: 86 86 18
Width: 1791
VWidth: 0
Flags: HW
LayerCount: 2
Back
SplineSet
0 2520 m 0
 964 0 l 0
 1069 0 l 0
 2033 2520 l 1024
EndSplineSet
Fore
SplineSet
0 2520 m 0
 843 0 l 0
 948 0 l 0
 1791 2520 l 1024
EndSplineSet
Validated: 3
EndChar

StartChar: W
Encoding: 87 87 19
Width: 2436
VWidth: 0
Flags: HW
LayerCount: 2
Fore
SplineSet
0 2520 m 25
 536 0 l 29
 641 0 l 25
 1166 2467 l 25
 1271 2467 l 25
 1795 0 l 25
 1900 0 l 25
 2436 2517 l 1049
EndSplineSet
Validated: 3
EndChar

StartChar: X
Encoding: 88 88 20
Width: 1780
VWidth: 0
Flags: HW
LayerCount: 2
Fore
SplineSet
0 0 m 25
 1699 2520 l 25
 1698 2520 l 25
 890 1320 l 25
 82 2520 l 25
 81 2520 l 25
 1780 0 l 1049
EndSplineSet
Validated: 3
EndChar

StartChar: Y
Encoding: 89 89 21
Width: 1654
VWidth: 0
Flags: HW
LayerCount: 2
Fore
SplineSet
0 2520 m 25
 827 1339 l 29
 827 0 l 25
 828 0 l 25
 828 1339 l 25
 1654 2520 l 1049
EndSplineSet
Validated: 3
EndChar

StartChar: Z
Encoding: 90 90 22
Width: 1739
VWidth: 0
Flags: HW
LayerCount: 2
Fore
SplineSet
1739 0 m 25
 0 0 l 25
 0 105 l 25
 1617 2415 l 25
 1617 2520 l 25
 122 2520 l 1049
EndSplineSet
Validated: 3
EndChar

StartChar: U
Encoding: 85 85 23
Width: 1630
VWidth: 0
Flags: HW
LayerCount: 2
Fore
SplineSet
0 2520 m 25
 0 675 l 1
 0 302 365 0 815 0 c 1
 1265 0 1630 302 1630 675 c 9
 1630 2520 l 1049
EndSplineSet
Validated: 3
EndChar

StartChar: P
Encoding: 80 80 24
Width: 1555
VWidth: 0
Flags: HW
LayerCount: 2
Fore
SplineSet
0 0 m 25
 0 2520 l 25
 950 2520 l 17
 1283 2520 1555 2220 1555 1851 c 1
 1555 1482 1283 1182 950 1182 c 1
 1 1182 l 1049
EndSplineSet
Validated: 3
EndChar

StartChar: R
Encoding: 82 82 25
Width: 1677
VWidth: 0
Flags: HW
LayerCount: 2
Fore
SplineSet
0 0 m 25
 0 2520 l 25
 1008 2520 l 17
 1377 2520 1677 2255 1677 1929 c 1
 1677 1603 1377 1338 1008 1338 c 9
 1 1338 l 25
 1 1337 l 25
 1008 1337 l 25
 1677 0 l 1049
EndSplineSet
Validated: 3
EndChar

StartChar: Q
Encoding: 81 81 26
Width: 1813
VWidth: 0
Flags: HWO
LayerCount: 2
Back
SplineSet
830 504 m 1
 1039 504 l 1
 1171 456 l 1
 1171 456 1241.9658356 253.981928467 1318 136 c 0
 1404.67331365 1.50934344069 1538.71642673 -151.62671543 1697 -175 c 0
 1825.9912195 -194.047766094 1956.06445312 -80 1957 -80 c 9
 1957 -79 l 9
 1957 -79 1826 -193 1697 -174 c 1033
905 2520 m 0
 1404 2520 1813 1955 1813 1260 c 0
 1813 565 1407 0 908 0 c 0
 409 0 0 565 0 1260 c 0
 0 1955 406 2520 905 2520 c 0
EndSplineSet
Fore
SplineSet
840 514 m 4
 1034 559 1197.46582031 508.772460938 1348 156 c 4
 1403.72070312 25.4208984375 1565.12597656 -122.889648438 1727 -155 c 4
 1854.89746094 -180.37109375 1986.06445312 -60 1987 -60 c 13
 1987 -59 l 13
 1987 -59 1856 -173 1727 -154 c 1037
905 2520 m 0
 1404 2520 1813 1955 1813 1260 c 0
 1813 565 1407 0 908 0 c 0
 409 0 0 565 0 1260 c 0
 0 1955 406 2520 905 2520 c 0
EndSplineSet
EndChar

StartChar: S
Encoding: 83 83 27
Width: 1721
VWidth: 0
Flags: HW
LayerCount: 2
Back
SplineSet
0 750.209960938 m 0
 49.0908203125 557.622070312 l 0
 117.90625 241.275390625 463.506835938 0 878.6015625 0 c 0
 1343.07714844 0 1720.69921875 302.09765625 1720.69921875 673.426757812 c 0
 1720.69921875 1044.75488281 1343.07714844 1346.85351562 878.6015625 1346.85351562 c 8
 756.50390625 1346.85351562 930.572304688 1346.85351562 808.112304688 1346.85351562 c 16
 397.762695312 1346.85351562 64.1962890625 1609.9296875 64.1962890625 1933.42675781 c 0
 64.1962890625 2256.92285156 397.762304688 2520 808.112304688 2520 c 0
 1110.99015565 2520 1372.03714607 2376.67918123 1487.99999463 2171.5273752 c 1
 1487.99999463 2171.5273752 1531 2076 1552.02832031 1933.42675781 c 1024
EndSplineSet
Fore
SplineSet
0 750.209960938 m 0
 30 412 290 0 847.97303219 0 c 0
 1343.07714844 0 1720.46387297 302.09773083 1720.69921875 673.426757812 c 4
 1721 1148 1292 1284 849 1344.74707031 c 0
 445.832437113 1400.03205517 104.196289062 1501.72949219 104.196289062 1933.42675781 c 0
 104.196289062 2256.92285156 437.762695313 2520 848.112304688 2520 c 0
 1166 2520 1510 2340 1552.02832031 1933.42675781 c 1024
EndSplineSet
EndChar

StartChar: four
Encoding: 52 52 29
Width: 1890
VWidth: 0
Flags: HW
LayerCount: 2
Fore
SplineSet
1365 0 m 25
 1365 2520 l 25
 1060 2520 l 25
 0 1145 l 25
 0 888 l 25
 1890 888 l 1053
EndSplineSet
Validated: 3
EndChar

StartChar: eight
Encoding: 56 56 30
Width: 1680
VWidth: 0
Flags: HW
HStem: 0 1400<511.225 1219.82> 1400 1120<474.418 1178.48>
LayerCount: 2
Fore
SplineSet
920 1400 m 0x80
 720 1400 l 0
 257.765660085 1359.55973537 10.5850173499 1018.11523783 0 715 c 0
 -13.4712057272 329.235140771 376.282656263 16.19336647 840 0 c 0
 1303.71734374 -16.19336647 1666.52879427 299.235140771 1680 685 c 0
 1690.59444021 988.385073358 1422.234375 1359.55957031 960 1400 c 0
 760 1400 l 0x80
 353.552563179 1435.55954304 89.2160555189 1661.18823445 100 1970 c 0
 110.783944481 2278.81176555 432.248542576 2534.23899465 840 2520 c 0x40
 1247.75145742 2505.76100535 1590.78394448 2258.81176555 1580 1950 c 0
 1569.21605552 1641.18823445 1326.44743682 1435.55954304 920 1400 c 0x80
EndSplineSet
Validated: 37
EndChar

StartChar: two
Encoding: 50 50 31
Width: 1630
VWidth: 0
Flags: HW
LayerCount: 2
Back
SplineSet
820 1400 m 0x80
 620 1400 l 0
 157.765625 1359.55957031 -89.4150390625 1018.11523438 -100 715 c 0
 -113.471679688 329.235351562 276.282226562 16.193359375 740 0 c 0
 1203.71777344 -16.193359375 1566.52832031 299.235351562 1580 685 c 0
 1590.59472656 988.384765625 1322.234375 1359.55957031 860 1400 c 0
 660 1400 l 0x80
 253.552734375 1435.55957031 -10.7841796875 1661.18847656 0 1970 c 0
 10.7841796875 2278.81152344 332.249023438 2534.23925781 740 2520 c 0x40
 1147.75097656 2505.76074219 1490.78417969 2258.81152344 1480 1950 c 0
 1469.21582031 1641.18847656 1226.44726562 1435.55957031 820 1400 c 0x80
0 0 m 25
 0 2520 l 25
 1562 2520 l 1
 1562 2519 l 1
 1 2519 l 1
 1 1339 l 25
 1109 1339 l 1
 1109 1338 l 1
 1 1338 l 1
 1 1 l 1
 816 1134 l 1
 1630 0 l 1
 0 0 l 25
EndSplineSet
Fore
SplineSet
1630 0 m 1
 0 0 l 1
 27.919921875 799.512695312 499.77734375 1045 1009 1339 c 0
 1355.41015625 1539 1478.21582031 1641.18847656 1489 1950 c 0
 1499.78417969 2258.81152344 1174.75097656 2505.76074219 767 2520 c 0
 359.249023438 2534.23925781 40.6604931144 2314.0106215 18 2055 c 1
 10.3302946382 1967.33486657 0 1845 0 1845 c 9
 0 1844 l 1049
EndSplineSet
Validated: 35
EndChar

StartChar: seven
Encoding: 55 55 32
Width: 1630
VWidth: 0
Flags: HW
LayerCount: 2
Fore
SplineSet
0 2520 m 25
 1630 2520 l 25
 1630 2310 l 17
 1239.67705679 1919.67705679 630 1275 630 0 c 1033
EndSplineSet
Validated: 3
EndChar

StartChar: five
Encoding: 53 53 33
Width: 1625
VWidth: 0
Flags: HW
LayerCount: 2
Back
SplineSet
2745 2612 m 25
 1625 2612 l 25
 1233.41992188 -362.330078125 l 1049
1400 2520 m 29
 265 2520 l 29
 -152.52 -450.8 l 1053
785 1680 m 1
 1249 1680 1625 1304 1625 840 c 1
 1625 376 1249 0 785 0 c 1
 321 0 -55 376 -55 840 c 1
 -55 1304 321 1680 785 1680 c 1
EndSplineSet
Fore
SplineSet
1385 2520 m 25
 265 2520 l 1
 96.92 1322 l 1
 248.84 1538.51 507.178710938 1680 785 1680 c 1
 1249 1680 1625 1304 1625 840 c 1
 1625 376 1249 0 785 0 c 1
 474.012695312 0 223.709960938 182.396484375 57.3388671875 420 c 1
 0 502 l 9
 0 503 l 1049
EndSplineSet
Validated: 3
EndChar

StartChar: hyphen
Encoding: 45 45 34
Width: 1200
VWidth: 0
Flags: HW
LayerCount: 2
Back
SplineSet
0 1339 m 29
 1200 1339 l 1053
EndSplineSet
Fore
SplineSet
0 1189 m 25
 1200 1189 l 1049
EndSplineSet
EndChar

StartChar: colon
Encoding: 58 58 35
Width: 210
VWidth: 0
Flags: HW
LayerCount: 2
Back
SplineSet
105 1443 m 0
 163 1443 210 1396 210 1338 c 0
 210 1280 163 1233 105 1233 c 0
 47 1233 0 1280 0 1338 c 0
 0 1396 47 1443 105 1443 c 0
105 315 m 0
 163 315 210 268 210 210 c 0
 210 152 163 105 105 105 c 0
 47 105 0 152 0 210 c 0
 0 268 47 315 105 315 c 0
EndSplineSet
Fore
SplineSet
181.773892294 1409.63778192 m 5
 199.285071227 1390.87872298 210 1365.69323613 210 1338 c 4
 210 1280 163 1233 105 1233 c 4
 47 1233 0 1280 0 1338 c 4
 0 1396 47 1443 105 1443 c 4
 135.306763868 1443 162.610109395 1430.16721254 181.773892294 1409.63778192 c 1029
183.038750805 280.258486553 m 1
 199.799647593 261.652846239 210 237.02008138 210 210 c 0
 210 152 163 105 105 105 c 0
 47 105 0 152 0 210 c 0
 0 268 47 315 105 315 c 0
 135.97991862 315 163.821517105 301.590813968 183.038750805 280.258486553 c 1025
EndSplineSet
EndChar

StartChar: period
Encoding: 46 46 36
Width: 210
VWidth: 0
Flags: HW
LayerCount: 2
Back
SplineSet
105 315 m 0
 163 315 210 268 210 210 c 0
 210 152 163 105 105 105 c 4
 47 105 0 152 0 210 c 0
 0 268 47 315 105 315 c 0
EndSplineSet
Fore
SplineSet
172.695663245 290.273762264 m 1
 195.511331013 271.014586728 210 242.202775905 210 210 c 0
 210 152 163 105 105 105 c 4
 47 105 0 152 0 210 c 0
 0 268 47 315 105 315 c 0
 130.797224095 315 154.418329141 305.70203679 172.695663245 290.273762264 c 1025
EndSplineSet
EndChar

StartChar: comma
Encoding: 44 44 37
Width: 210
VWidth: 0
Flags: HW
LayerCount: 2
Back
SplineSet
105 0 m 0
 163 0 210 -47 210 -105 c 0
 210 -163 163 -210 105 -210 c 0
 47 -210 0 -163 0 -105 c 0
 0 -47 47 0 105 0 c 0
EndSplineSet
Fore
SplineSet
105 315 m 1
 163 315 210 268 210 210 c 1
 210 -18 -26 -210 -26 -210 c 1
 -26 -210 210 -19 210 210 c 1
 210 152 163 105 105 105 c 1
 47 105 0 152 0 210 c 1
 0 268 47 315 105 315 c 1
EndSplineSet
Validated: 5
EndChar

StartChar: semicolon
Encoding: 59 59 38
Width: 210
VWidth: 0
Flags: HW
LayerCount: 2
Back
SplineSet
105 315 m 1
 163 315 210 268 210 210 c 1
 210 -18 -26 -210 -26 -210 c 1
 -26 -210 210 -19 210 210 c 1
 210 152 163 105 105 105 c 1
 47.416015625 105 -4.1123046875 152 0 210 c 1
 0 268 47 315 105 315 c 1
105 1443 m 4
 163 1443 210 1396 210 1338 c 0
 210 1280 163 1233 105 1233 c 0
 47 1233 0 1280 0 1338 c 0
 0 1396 47 1443 105 1443 c 4
EndSplineSet
Fore
SplineSet
105 315 m 1
 163 315 210 268 210 210 c 1
 210 -18 -26 -210 -26 -210 c 1
 -26 -210 210 -19 210 210 c 1
 210 152 163 105 105 105 c 1
 47.416015625 105 -4.1123046875 152 0 210 c 1
 0 268 47 315 105 315 c 1
187.52805833 1402.93161195 m 1
 201.603190672 1385.0652762 210 1362.51524345 210 1338 c 0
 210 1280 163 1233 105 1233 c 0
 47 1233 0 1280 0 1338 c 0
 0 1396 47 1443 105 1443 c 4
 138.484756553 1443 168.303187857 1427.33479212 187.52805833 1402.93161195 c 1025
EndSplineSet
EndChar

StartChar: quotedblbase
Encoding: 8222 8222 40
Width: 1050
VWidth: 0
Flags: HW
LayerCount: 2
Fore
SplineSet
945 210 m 5
 1003 210 1050 163 1050 105 c 5
 1050 -123 814 -315 814 -315 c 5
 814 -315 1050 -124 1050 105 c 5
 1050 47 1003 0 945 0 c 5
 887 0 840 47 840 105 c 5
 840 163 887 210 945 210 c 5
105 210 m 5
 163 210 210 163 210 105 c 5
 210 -123 -26 -315 -26 -315 c 5
 -26 -315 210 -124 210 105 c 5
 210 47 163 -1.03295182478e-14 105 0 c 5
 47 0 0 47 0 105 c 5
 0 163 47 210 105 210 c 5
EndSplineSet
Validated: 5
EndChar

StartChar: quotedblright
Encoding: 8221 8221 41
Width: 1050
VWidth: 0
Flags: HW
LayerCount: 2
Fore
SplineSet
944 2520 m 5
 1002 2520 1049 2473 1049 2415 c 5
 1049 2187 813 1995 813 1995 c 5
 813 1995 1049 2186 1049 2415 c 5
 1049 2357 1002 2310 944 2310 c 5
 886 2310 839 2357 839 2415 c 5
 839 2473 886 2520 944 2520 c 5
104 2520 m 5
 162 2520 209 2473 209 2415 c 5
 209 2187 -27 1995 -27 1995 c 5
 -27 1995 209 2186 209 2415 c 5
 209 2357 162 2310 104 2310 c 5
 46 2310 -1 2357 -1 2415 c 5
 -1 2473 46 2520 104 2520 c 5
EndSplineSet
Validated: 5
EndChar

StartChar: quotedblleft
Encoding: 8220 8220 42
Width: 1050
VWidth: 0
Flags: HW
LayerCount: 2
Fore
SplineSet
105 1995 m 5
 47 1995 0 2042 0 2100 c 5
 0 2328 236 2520 236 2520 c 5
 236 2520 0 2329 0 2100 c 5
 0 2158 47 2205 105 2205 c 5
 163 2205 210 2158 210 2100 c 5
 210 2042 163 1995 105 1995 c 5
945 1995 m 1
 887 1995 840 2042 840 2100 c 1
 840 2328 1076 2520 1076 2520 c 1
 1076 2520 840 2329 840 2100 c 1
 840 2158 887 2205 945 2205 c 1
 1003 2205 1050 2158 1050 2100 c 1
 1050 2042 1003 1995 945 1995 c 1
EndSplineSet
Validated: 5
EndChar

StartChar: quoteleft
Encoding: 8216 8216 43
Width: 210
VWidth: 0
Flags: HW
LayerCount: 2
Fore
SplineSet
105 1995 m 5
 47 1995 0 2042 0 2100 c 5
 0 2328 236 2520 236 2520 c 5
 236 2520 0 2329 0 2100 c 5
 0 2158 47 2205 105 2205 c 5
 163 2205 210 2158 210 2100 c 5
 210 2042 163 1995 105 1995 c 5
EndSplineSet
Validated: 5
EndChar

StartChar: quoteright
Encoding: 8217 8217 44
Width: 210
VWidth: 0
Flags: HW
LayerCount: 2
Fore
SplineSet
105 2520 m 5
 163 2520 210 2473 210 2415 c 5
 210 2187 -26 1995 -26 1995 c 5
 -26 1995 210 2186 210 2415 c 5
 210 2357 163 2310 105 2310 c 5
 47 2310 0 2357 0 2415 c 5
 0 2473 47 2520 105 2520 c 5
EndSplineSet
Validated: 5
EndChar

StartChar: ellipsis
Encoding: 8230 8230 45
Width: 1890
VWidth: 0
Flags: HW
LayerCount: 2
Back
SplineSet
1785 210 m 0
 1843 210 1890 163 1890 105 c 0
 1890 47 1843 0 1785 0 c 0
 1727 0 1680 47 1680 105 c 0
 1680 163 1727 210 1785 210 c 0
945 210 m 0
 1003 210 1050 163 1050 105 c 0
 1050 47 1003 0 945 0 c 0
 887 0 840 47 840 105 c 0
 840 163 887 210 945 210 c 0
105 210 m 0
 163 210 210 163 210 105 c 0
 210 47 163 0 105 0 c 0
 47 0 0 47 0 105 c 0
 0 163 47 210 105 210 c 0
EndSplineSet
Fore
SplineSet
1867.37832339 170.121231413 m 1
 1881.54361865 152.224952312 1890 129.602052697 1890 105 c 0
 1890 47 1843 0 1785 0 c 0
 1727 0 1680 47 1680 105 c 0
 1680 163 1727 210 1785 210 c 0
 1818.3979473 210 1848.14855462 194.415910954 1867.37832339 170.121231413 c 1025
1040.20942357 149.341085353 m 1
 1046.49175455 135.871242235 1050 120.846160479 1050 105 c 0
 1050 47 1003 0 945 0 c 0
 887 0 840 47 840 105 c 0
 840 163 887 210 945 210 c 0
 987.153839521 210 1023.49721292 185.173462913 1040.20942357 149.341085353 c 1025
193.925633029 160.866465085 m 1
 204.109439212 144.687828872 210 125.533235379 210 105 c 0
 210 47 163 0 105 0 c 0
 47 0 0 47 0 105 c 0
 0 163 47 210 105 210 c 0
 142.466764621 210 175.343355947 190.387441378 193.925633029 160.866465085 c 1025
EndSplineSet
EndChar

StartChar: exclam
Encoding: 33 33 46
Width: 140
VWidth: 0
Flags: HW
LayerCount: 2
Back
SplineSet
140 2450 m 1
 140 1680 l 1
 70 840 l 1
 0 1680 l 1
 0 2450 l 1
 0 2489 31 2520 70 2520 c 1
 109 2520 140 2489 140 2450 c 1
70 315 m 0
 128 315 175 268 175 210 c 0
 175 152 128 105 70 105 c 0
 12 105 -35 152 -35 210 c 0
 -35 268 12 315 70 315 c 0
EndSplineSet
Fore
SplineSet
70 2522 m 25
 70 842 l 1053
146.81310446 281.595752499 m 1
 164.3010656 262.841112697 175 237.67255931 175 210 c 0
 175 152 128 105 70 105 c 0
 12 105 -35 152 -35 210 c 0
 -35 268 12 315 70 315 c 0
 100.32744069 315 127.647363471 302.149696206 146.81310446 281.595752499 c 1025
EndSplineSet
EndChar

StartChar: quotedbl
Encoding: 34 34 47
Width: 910
VWidth: 0
Flags: HW
LayerCount: 2
Fore
SplineSet
840 2100 m 1
 770 2380 l 1
 770 2450 l 1
 770 2489 801 2520 840 2520 c 1
 879 2520 910 2489 910 2450 c 1
 910 2380 l 1
 840 2100 l 1
70 2100 m 1
 0 2380 l 1
 0 2450 l 1
 0 2489 31 2520 70 2520 c 1
 109 2520 140 2489 140 2450 c 1
 140 2380 l 1
 70 2100 l 1
EndSplineSet
EndChar

StartChar: quotesingle
Encoding: 39 39 48
Width: 140
VWidth: 0
Flags: HW
LayerCount: 2
Fore
SplineSet
70 2100 m 5
 0 2380 l 5
 0 2450 l 5
 0 2489 31 2520 70 2520 c 5
 109 2520 140 2489 140 2450 c 5
 140 2380 l 5
 70 2100 l 5
EndSplineSet
EndChar

StartChar: plus
Encoding: 43 43 49
Width: 1200
VWidth: 0
Flags: HW
LayerCount: 2
Fore
SplineSet
0 1338 m 21
 599 1338 l 1
 600 1930 l 1
 600 738 l 1
 601 1338 l 1
 1200 1338 l 1033
EndSplineSet
EndChar

StartChar: multiply
Encoding: 215 215 50
Width: 1200
VWidth: 0
Flags: HW
LayerCount: 2
Fore
SplineSet
0 1938 m 25
 1200 738 l 25
 601 1338 l 25
 1200 1938 l 25
 0 738 l 1049
EndSplineSet
Validated: 3
EndChar

StartChar: divide
Encoding: 247 247 51
Width: 1200
VWidth: 0
Flags: HW
LayerCount: 2
Back
SplineSet
600 948 m 0
 658 948 705 901 705 843 c 0
 705 785 658 738 600 738 c 0
 542 738 495 785 495 843 c 0
 495 901 542 948 600 948 c 0
600 1938 m 0
 658 1938 705 1891 705 1833 c 0
 705 1775 658 1728 600 1728 c 0
 542 1728 495 1775 495 1833 c 0
 495 1891 542 1938 600 1938 c 0
0 1339 m 25
 1200 1339 l 1049
EndSplineSet
Fore
SplineSet
687.353725729 901.28919937 m 1
 698.500861751 884.614634806 705 864.567854858 705 843 c 0
 705 785 658 738 600 738 c 0
 542 738 495 785 495 843 c 0
 495 901 542 948 600 948 c 0
 636.432145142 948 668.524125838 929.455661004 687.353725729 901.28919937 c 1025
683.71056295 1896.40194585 m 1
 697.072211937 1878.78602175 705 1856.82073075 705 1833 c 0
 705 1775 658 1728 600 1728 c 0
 542 1728 495 1775 495 1833 c 0
 495 1891 542 1938 600 1938 c 0
 634.179269246 1938 664.538548329 1921.67822385 683.71056295 1896.40194585 c 1025
0 1339 m 25
 1200 1339 l 1049
EndSplineSet
EndChar

StartChar: periodcentered
Encoding: 183 183 52
Width: 210
VWidth: 0
Flags: HW
LayerCount: 2
Fore
SplineSet
105 1443 m 0
 163 1443 210 1396 210 1338 c 0
 210 1280 163 1233 105 1233 c 0
 47 1233 0 1280 0 1338 c 0
 0 1396 47 1443 105 1443 c 0
EndSplineSet
Validated: 1
EndChar

StartChar: plusminus
Encoding: 177 177 53
Width: 1200
VWidth: 0
Flags: HW
LayerCount: 2
Fore
SplineSet
0 528 m 25
 1200 528 l 1049
0 1338 m 17
 599 1338 l 1
 600 1930 l 1
 600 738 l 1
 601 1338 l 1
 1200 1338 l 1033
EndSplineSet
Validated: 3
EndChar

StartChar: bullet
Encoding: 8226 8226 54
Width: 316
VWidth: 0
Flags: HW
LayerCount: 2
Back
SplineSet
316 1338 m 0
 316 1251 236 1180 158 1180 c 4
 80 1180 0 1251 0 1338 c 0
 0 1425 87 1496 158 1496 c 0
 245 1496 316 1425 316 1338 c 0
EndSplineSet
Fore
SplineSet
302.1122826 1402.66736956 m 1
 311.031362384 1382.91006966 316 1361.01488132 316 1338 c 0
 316 1251 236 1180 158 1180 c 4
 80 1180 0 1251 0 1338 c 0
 0 1425 87 1496 158 1496 c 0
 221.98511868 1496 277.315788081 1457.59588132 302.1122826 1402.66736956 c 1025
EndSplineSet
EndChar

StartChar: degree
Encoding: 176 176 55
Width: 944
VWidth: 0
Flags: HW
LayerCount: 2
Fore
SplineSet
472 2520 m 0
 733 2520 944 2309 944 2048 c 0
 944 1787 733 1576 472 1576 c 0
 211 1576 0 1787 0 2048 c 0
 0 2309 211 2520 472 2520 c 0
EndSplineSet
Validated: 1
EndChar

StartChar: ordmasculine
Encoding: 186 186 56
Width: 962
VWidth: 0
Flags: HW
LayerCount: 2
Fore
SplineSet
0 504 m 1
 962 504 l 1025
481 2520 m 0
 746 2520 962 2220 962 1851 c 0
 962 1482 746 1182 481 1182 c 4
 216 1182 -2.2593987228e-14 1482 0 1851 c 0
 2.2593987228e-14 2220 216 2520 481 2520 c 0
EndSplineSet
Validated: 3
EndChar

StartChar: percent
Encoding: 37 37 57
Width: 2520
VWidth: 0
Flags: HW
LayerCount: 2
Fore
SplineSet
0 0 m 25
 2520 2520 l 1025
2039 1338 m 0
 2304 1338 2520 1038 2520 669 c 0
 2520 300 2304 0 2039 0 c 0
 1774 0 1558 300 1558 669 c 0
 1558 1038 1774 1338 2039 1338 c 0
481 2520 m 0
 746 2520 962 2220 962 1851 c 0
 962 1482 746 1182 481 1182 c 0
 216 1182 -2.2593987228e-14 1482 0 1851 c 0
 2.2593987228e-14 2220 216 2520 481 2520 c 0
EndSplineSet
Validated: 3
EndChar

StartChar: slash
Encoding: 47 47 58
Width: 1630
VWidth: 0
Flags: HW
LayerCount: 2
Fore
SplineSet
0 -140 m 29
 1630 2660 l 1049
EndSplineSet
Validated: 3
EndChar

StartChar: backslash
Encoding: 92 92 59
Width: 1630
VWidth: 0
Flags: HW
LayerCount: 2
Fore
SplineSet
0 2660 m 25
 1630 -140 l 1053
EndSplineSet
Validated: 3
EndChar

StartChar: asterisk
Encoding: 42 42 60
Width: 1144
VWidth: 0
Flags: HW
LayerCount: 2
Fore
SplineSet
570 1920 m 29
 571 2520 l 29
 571 1920 l 29
 1144 2105 l 29
 572 1920 l 29
 924 1435 l 29
 571 1919 l 29
 218 1435 l 29
 570 1919 l 29
 0 2105 l 29
 570 1920 l 29
EndSplineSet
Validated: 1
EndChar

StartChar: dollar
Encoding: 36 36 61
Width: 1721
VWidth: 0
Flags: HW
LayerCount: 2
Fore
SplineSet
878.6 2800 m 25
 808.11 -280 l 1049
0 750.209960938 m 0
 49.0908203125 557.622070312 l 0
 117.90625 241.275390625 463.506835938 0 878.6015625 0 c 0
 1343.07714844 0 1720.69921875 302.09765625 1720.69921875 673.426757812 c 0
 1720.69921875 1044.75488281 1343.07714844 1346.85351562 878.6015625 1346.85351562 c 8
 756.50390625 1346.85351562 930.572304688 1346.85351562 808.112304688 1346.85351562 c 16
 397.762695312 1346.85351562 64.1962890625 1609.9296875 64.1962890625 1933.42675781 c 0
 64.1962890625 2256.92285156 397.762304688 2520 808.112304688 2520 c 0
 1110.99015565 2520 1372.03714607 2376.67918123 1487.99999463 2171.5273752 c 1
 1487.99999463 2171.5273752 1531 2076 1552.02832031 1933.42675781 c 1024
EndSplineSet
Validated: 3
EndChar

StartChar: underscore
Encoding: 95 95 62
Width: 1680
VWidth: 0
Flags: HW
LayerCount: 2
Fore
SplineSet
0 -210 m 29
 1680 -210 l 1049
EndSplineSet
Validated: 3
EndChar

StartChar: bracketleft
Encoding: 91 91 63
Width: 800
VWidth: 0
Flags: HW
LayerCount: 2
Fore
SplineSet
800 2730 m 25
 0 2730 l 25
 0 -280 l 25
 800 -280 l 1053
EndSplineSet
Validated: 3
EndChar

StartChar: bracketright
Encoding: 93 93 64
Width: 800
VWidth: 0
Flags: HW
LayerCount: 2
Fore
SplineSet
0 2730 m 25
 800 2730 l 25
 800 -280 l 25
 0 -280 l 1049
EndSplineSet
Validated: 3
EndChar

StartChar: emdash
Encoding: 8212 8212 65
Width: 2259
VWidth: 0
Flags: HW
LayerCount: 2
Back
SplineSet
0 1338 m 25
 1961 1338 l 1053
EndSplineSet
Fore
SplineSet
0 1188 m 25
 2261 1188 l 1049
EndSplineSet
EndChar

StartChar: endash
Encoding: 8211 8211 66
Width: 1630
VWidth: 0
Flags: HW
LayerCount: 2
Back
SplineSet
0 1338 m 25
 1630 1338 l 1049
EndSplineSet
Fore
SplineSet
0 1188 m 29
 1630 1188 l 1053
EndSplineSet
EndChar

StartChar: bar
Encoding: 124 124 67
Width: 0
VWidth: 0
Flags: HW
LayerCount: 2
Fore
SplineSet
0 -420 m 25
 0 2800 l 1053
EndSplineSet
Validated: 3
EndChar

StartChar: equal
Encoding: 61 61 68
Width: 1200
VWidth: 0
Flags: HW
LayerCount: 2
Fore
SplineSet
0 1758 m 25
 1200 1758 l 1049
0 918 m 25
 1200 918 l 1049
EndSplineSet
Validated: 3
EndChar

StartChar: less
Encoding: 60 60 69
Width: 1200
VWidth: 0
Flags: HW
LayerCount: 2
Fore
SplineSet
1200 1835 m 29
 0 1338 l 29
 1200 841 l 1053
EndSplineSet
Validated: 3
EndChar

StartChar: greater
Encoding: 62 62 70
Width: 1200
VWidth: 0
Flags: HW
LayerCount: 2
Fore
SplineSet
0 1835 m 29
 1200 1338 l 29
 0 841 l 1053
EndSplineSet
Validated: 3
EndChar

StartChar: braceleft
Encoding: 123 123 71
Width: 840
VWidth: 0
Flags: HW
LayerCount: 2
Fore
SplineSet
840 2730 m 17
 608 2730 420 2542 420 2310 c 1
 420 1505 l 1
 420 1384.97265625 295 1225 140 1225 c 1
 0 1225 l 1
 140 1224 l 1
 295 1224 420 1067.0859375 420 945 c 1
 420 140 l 1
 420 -92 608 -280 840 -280 c 1025
EndSplineSet
Validated: 3
EndChar

StartChar: braceright
Encoding: 125 125 72
Width: 840
VWidth: 0
Flags: HW
LayerCount: 2
Fore
SplineSet
0 2730 m 17
 232 2730 420 2542 420 2310 c 1
 420 1505 l 1
 420 1384.97265625 545 1225 700 1225 c 1
 840 1225 l 1
 700 1224 l 1
 545 1224 420 1067.0859375 420 945 c 1
 420 140 l 1
 420 -92 232 -280 0 -280 c 1025
EndSplineSet
Validated: 3
EndChar

StartChar: asciicircum
Encoding: 94 94 73
Width: 892
VWidth: 0
Flags: HW
LayerCount: 2
Fore
SplineSet
0 1748 m 25
 446 2520 l 25
 892 1748 l 1049
EndSplineSet
Validated: 3
EndChar

StartChar: numbersign
Encoding: 35 35 74
Width: 1712
VWidth: 0
Flags: HW
LayerCount: 2
Fore
SplineSet
92.447265625 1764 m 25
 1712.44726562 1764 l 25
 1323.5 1765 l 25
 1362.06738281 2520 l 25
 1230 0 l 25
 1270.56835938 755 l 25
 1659.62011719 756 l 25
 39.6201171875 756 l 25
 428.568359375 755 l 25
 390 0 l 25
 522.067382812 2520 l 25
 481.5 1765 l 25
 92.447265625 1764 l 25
EndSplineSet
Validated: 5
EndChar

StartChar: uni00AD
Encoding: 173 173 75
Width: 600
VWidth: 0
Flags: HW
LayerCount: 2
Fore
SplineSet
0 1339 m 25
 600 1339 l 1049
EndSplineSet
Validated: 3
EndChar

StartChar: brokenbar
Encoding: 166 166 76
Width: 0
VWidth: 0
Flags: HW
LayerCount: 2
Fore
SplineSet
0 1505 m 25
 0 2800 l 1049
0 -420 m 25
 0 875 l 1049
EndSplineSet
Validated: 3
EndChar

StartChar: parenleft
Encoding: 40 40 77
Width: 840
VWidth: 0
Flags: HW
LayerCount: 2
Back
SplineSet
0 1768 m 4
 703 1768 1273 976 1273 0 c 4
 1273 -976 703 -1768 0 -1768 c 4
 -703 -1768 -1273 -976 -1273 0 c 4
 -1273 976 -703 1768 0 1768 c 4
1768 2993 m 0
 2744 2993 3536 2201 3536 1225 c 0
 3536 249 2744 -543 1768 -543 c 0
 792 -543 0 249 0 1225 c 0
 0 2201 792 2993 1768 2993 c 0
1365 2625 m 0
 2118 2625 2730 2013 2730 1260 c 0
 2730 507 2118 -105 1365 -105 c 0
 612 -105 0 507 0 1260 c 0
 0 2013 612 2625 1365 2625 c 0
EndSplineSet
Fore
SplineSet
839.933023928 -403.000010682 m 0
 350.095327645 -156.789893324 1.13686837722e-13 495.098439052 0 1260 c 0
 0 2024.90153882 350.095307392 2676.78985561 839.932981423 2922.99998932 c 1024
EndSplineSet
Validated: 3
EndChar

StartChar: parenright
Encoding: 41 41 78
Width: 840
VWidth: 0
Flags: HW
LayerCount: 2
Fore
SplineSet
-0 -403 m 0
 489.836914062 -156.790039062 839.932617188 495.098632812 839.932617188 1260 c 0
 839.932617188 2024.90136719 489.836914062 2676.79003906 -0 2923 c 1024
EndSplineSet
Validated: 3
EndChar

StartChar: three
Encoding: 51 51 79
Width: 1755
VWidth: 0
Flags: HW
LayerCount: 2
Fore
SplineSet
63 2520 m 25
 1463 2520 l 1
 1363 2136 1177 1888 655 1500 c 1
 786.678519166 1558.80454825 923.565429688 1564 1077 1564 c 3
 1421 1564 1755 1282.08 1755 836 c 3
 1755 368 1395 0 875 0 c 3
 455.728754494 0 207 210 93 459 c 1
 0 675 l 1025
EndSplineSet
Validated: 3
EndChar

StartChar: six
Encoding: 54 54 80
Width: 1667
VWidth: 0
Flags: HW
LayerCount: 2
Fore
SplineSet
1633 2075 m 5
 1539 2241 l 5
 1449 2367 1241 2521 959 2521 c 7
 689.125976562 2521 535 2458 354 2279 c 4
 57.95703125 1986.22753906 0 1586.51014091 0 1303 c 7
 0 547.770578894 293 0 906 0 c 7
 1345 0 1667 285 1667 687 c 7
 1667 1170 1293.01086942 1416 879 1416 c 7
 634.945950332 1416 288 1374 75 741 c 1028
EndSplineSet
Validated: 3
EndChar

StartChar: nine
Encoding: 57 57 81
Width: 1667
VWidth: 0
Flags: HW
LayerCount: 2
Fore
SplineSet
34 446 m 1
 128 280 l 1
 218 154 426 0 708 0 c 3
 977.874023438 0 1132 63 1313 242 c 0
 1609.04296875 534.772460938 1667 934.490234375 1667 1218 c 3
 1667 1973.22949219 1374 2521 761 2521 c 3
 322 2521 0 2236 0 1834 c 3
 0 1351 373.989257812 1105 788 1105 c 3
 1032.05371094 1105 1379 1147 1592 1780 c 1024
EndSplineSet
Validated: 3
EndChar

StartChar: question
Encoding: 63 63 82
Width: 1242
VWidth: 0
Flags: HW
LayerCount: 2
Back
SplineSet
621.33203125 315 m 0
 679.33203125 315 726.33203125 268 726.33203125 210 c 0
 726.33203125 152 679.33203125 105 621.33203125 105 c 0
 563.33203125 105 516.33203125 152 516.33203125 210 c 0
 516.33203125 268 563.33203125 315 621.33203125 315 c 0
70.33203125 1746 m 1
 -5.66796875 1891 0 1960.02832031 0 2054 c 0
 0 2311 278.666015625 2520 621.33203125 2520 c 0
 963.998046875 2520 1242.6640625 2311 1242.6640625 2054 c 3
 1242.6640625 1831.04828129 1101.65283723 1663.0441409 953.994595978 1492 c 5
 791.702067141 1304.00381412 621.379670506 1112.33518301 621.33203125 840 c 1027
EndSplineSet
Fore
SplineSet
708.144151055 269.091353278 m 1
 719.622094901 252.259265389 726.33203125 231.914838012 726.33203125 210 c 0
 726.33203125 152 679.33203125 105 621.33203125 105 c 0
 563.33203125 105 516.33203125 152 516.33203125 210 c 0
 516.33203125 268 563.33203125 315 621.33203125 315 c 0
 657.417193238 315 689.244469354 296.807214912 708.144151055 269.091353278 c 1025
70.33203125 1746 m 1
 -5.66796875 1891 0 1960.02832031 0 2054 c 0
 0 2311 278.666015625 2520 621.33203125 2520 c 0
 963.998046875 2520 1242.6640625 2311 1242.6640625 2054 c 3
 1242.6640625 1831.04828129 1101.65283723 1663.0441409 953.994595978 1492 c 5
 791.702067141 1304.00381412 621.379670506 1112.33518301 621.33203125 840 c 1027
EndSplineSet
EndChar

StartChar: ampersand
Encoding: 38 38 83
Width: 1968
VWidth: 0
Flags: HW
LayerCount: 2
Back
SplineSet
1968 0 m 0
 879 831 638.422618262 1477.09369221 638 1478 c 0
 637.577381738 1478.90630779 470 1812 470 2072 c 1
 470 2320 605 2520 800 2520 c 3
 1031 2520 1214 2351 1214 2132 c 3
 1214 1882 944.295898438 1630.29101562 677.422851562 1472 c 0
 365.78125 1287.15527344 0 1055.12304688 0 668 c 3
 0 284.55078125 380.768554688 0 764 0 c 3
 1380 0 1268 468 1632 1020 c 1028
EndSplineSet
Fore
SplineSet
1968 0 m 0
 1124 636 471.583049006 1460.21824263 470 2072 c 0
 469.358276323 2319.99916974 605 2520 800 2520 c 3
 1031 2520 1214 2351 1214 2132 c 3
 1214 1882 944.295898438 1630.29101562 677.422851562 1472 c 0
 365.78125 1287.15527344 0 1025.12304688 0 638 c 3
 0 248 356.59765625 0.892578125 684.196289062 0.892578125 c 3
 1396.00055963 0.892578125 1632 1020 1632 1020 c 1024
EndSplineSet
EndChar

StartChar: at
Encoding: 64 64 84
Width: 2729
VWidth: 0
Flags: HW
LayerCount: 2
Back
SplineSet
905 1572 m 4
 956.9453125 1806.31152344 1115 1930 1385 1930 c 7
 1665 1930 1835 1714 1835 1484 c 7
 1835 1153.1796875 1835 684 1835 684 c 7
 1835 424 1575 384 1395 384 c 7
 1175 384 905 444 905 684 c 7
 905 984 1137.22265625 1122.35449219 1427 1200 c 4
 1610.52636719 1249.17578125 1835 1264 1835 1264 c 5
 1835 584 l 5
 1835 424 1945 374 2005 374 c 7
 2505 374 2730 760 2730 1260 c 3
 2730 2071 2118 2730 1365 2730 c 3
 612 2730 0 2071 0 1260 c 3
 0 449 612 -210 1365 -210 c 3
 1596.1640625 -210 1814.0390625 -152.323242188 2005 -50.5966796875 c 1024
EndSplineSet
Fore
SplineSet
905 1692 m 0
 956.9453125 1926.31152344 1115 2050 1385 2050 c 3
 1665 2050 1835 1834 1835 1604 c 3
 1835 1273.1796875 1835 804 1835 804 c 3
 1835 544 1575 504 1395 504 c 3
 1175 504 905 564 905 804 c 3
 905 1104 1137.22265625 1242.35449219 1427 1320 c 0
 1610.52636719 1369.17578125 1835 1384 1835 1384 c 1
 1835 704 l 1
 1835 544 1982 494 2145 494 c 3
 2553.65430424 494 2729.16976875 928.088641176 2730 1260 c 3
 2730 2071 2118 2730 1365 2730 c 3
 612 2730 0 2071 0 1260 c 3
 0 420 640 -210 1365 -210 c 3
 1563.0587888 -210 1714.36721206 -170.559349659 1857.24607834 -108.669215509 c 1025
1857.24607834 -108.669215509 m 1025
EndSplineSet
EndChar

StartChar: grave
Encoding: 96 96 85
Width: 244
VWidth: 0
Flags: HW
LayerCount: 2
Fore
SplineSet
244.62109375 2146.54003906 m 1
 44 2354.02734375 l 1
 9 2414.64941406 l 1
 -10.5 2448.42382812 0.8466796875 2490.77050781 34.62109375 2510.27050781 c 1
 68.396484375 2529.77050781 110.743164062 2518.42382812 130.243164062 2484.64941406 c 1
 165.243164062 2424.02734375 l 1
 244.62109375 2146.54003906 l 1
EndSplineSet
Validated: 33
EndChar

StartChar: a
Encoding: 97 97 86
Width: 1155
VWidth: 0
Flags: HW
LayerCount: 2
Back
SplineSet
-1000 1680 m 25
 3000 1680 l 9
 3000 1470 l 25
 -1000 1470 l 1049
EndSplineSet
Fore
SplineSet
0 1188 m 0
 51.9455073451 1422.31104171 210 1540 480 1540 c 3
 760 1540 945 1330 945 1100 c 3
 945 769.18 944 315 944 315 c 3
 944 63 670 -20 490 -20 c 3
 270 -20 0 75 0 315 c 3
 0 615 232.222252113 738.354286469 522 816 c 0
 705.525906995 865.175618569 945 866 945 866 c 1
 945 280 l 1
 945 28 1055 -24 1115 -24 c 7
 1182 -24 1260 -12 1260 -12 c 1025
EndSplineSet
EndChar

StartChar: b
Encoding: 98 98 87
Width: 945
VWidth: 0
Flags: HW
LayerCount: 2
Back
SplineSet
420 1540 m 4
 710 1540 945 1189 945 758 c 4
 945 327 710 -24 420 -24 c 4
 130 -24 -108.7611368 327.016411159 -105 758 c 4
 -101.2388632 1188.98358884 130 1540 420 1540 c 4
EndSplineSet
Fore
SplineSet
0 2520 m 5
 0 0 l 5
 1 284 l 5
 95.9150390625 91.955078125 247 -24 420 -24 c 7
 710 -24 945 327 945 758 c 7
 945 1189 710 1540 420 1540 c 5
 247 1540 96 1416 1 1224 c 1037
EndSplineSet
EndChar

StartChar: c
Encoding: 99 99 88
Width: 1008
VWidth: -24
Flags: HW
LayerCount: 2
Back
SplineSet
525 1540 m 4
 815 1540 1050 1189 1050 758 c 4
 1050 327 815 -24 525 -24 c 4
 235 -24 -3.7607421875 327.016601562 0 758 c 4
 3.7607421875 1188.98339844 235 1540 525 1540 c 4
EndSplineSet
Fore
SplineSet
1008.29199219 447.682617188 m 0
 986.670898438 188.625976562 796.33203125 -24 535.822265625 -24 c 0
 240.37890625 -24 0 326.659179688 0 758 c 0
 0 1189.34082031 240.37890625 1540 535.822265625 1540 c 4
 785.674804688 1540 938.762829362 1337.3684842 968.75 1093.14257812 c 1024
EndSplineSet
EndChar

StartChar: d
Encoding: 100 100 89
Width: 945
VWidth: 0
Flags: HW
LayerCount: 2
Fore
SplineSet
945 2520 m 5
 945 0 l 5
 944 284 l 5
 849.084960938 91.955078125 698 -24 525 -24 c 7
 235 -24 0 327 0 758 c 7
 0 1189 235 1540 525 1540 c 5
 698 1540 849 1416 944 1224 c 1037
EndSplineSet
EndChar

StartChar: q
Encoding: 113 113 90
Width: 945
VWidth: 0
Flags: HW
LayerCount: 2
Fore
SplineSet
945 -1004 m 5
 945 1516 l 5
 944 1232 l 5
 849.084960938 1424.04492188 698 1540 525 1540 c 7
 235 1540 0 1189 0 758 c 7
 0 327 235 -24 525 -24 c 5
 698 -24 849 100 944 292 c 1037
EndSplineSet
EndChar

StartChar: p
Encoding: 112 112 91
Width: 945
VWidth: 0
Flags: HW
LayerCount: 2
Fore
SplineSet
0 -1004 m 5
 0 1516 l 1
 1 1232 l 1
 95.9150390625 1424.04492188 247 1540 420 1540 c 3
 710 1540 945 1189 945 758 c 3
 945 327 710 -24 420 -24 c 1
 247 -24 96 100 1 292 c 1033
EndSplineSet
EndChar

StartChar: s
Encoding: 115 115 92
Width: 973
VWidth: 0
Flags: HW
LayerCount: 2
Back
SplineSet
915.75 1149 m 0
 881.548828125 1309.90527344 739.669921875 1540 472.8203125 1540 c 3
 248.379882812 1540 42 1361.04980469 42 1149 c 3
 42 929 270.190429688 806.465820312 477 770 c 0
 683.809570312 733.534179688 972.75 632 972.75 379 c 3
 972.75 177 808.8203125 -24 472.8203125 -24 c 7
 158.8203125 -24 34.3056640625 227.60546875 0 389 c 1024
EndSplineSet
Fore
SplineSet
915.75 1149 m 0
 881.548828125 1309.90527344 739.669921875 1540 472.8203125 1540 c 3
 248.379882812 1540 42 1361.04980469 42 1149 c 3
 42 929 270.190429688 806.465820312 477 770 c 0
 683.809570312 733.534179688 972.75 632 972.75 379 c 3
 972.75 177 808.8203125 -24 472.8203125 -24 c 3
 200 -24 34.3056640625 227.60546875 0 389 c 1024
EndSplineSet
EndChar

StartChar: e
Encoding: 101 101 93
Width: 1014
VWidth: -24
Flags: HW
LayerCount: 2
Back
SplineSet
525 1540 m 0
 727.185706 1540 902.637187456 1369.38703973 990.354441144 1120.00001295 c 1
 1028.45223182 1011.68500827 1050 888.510209359 1050 758 c 0
 1050 651.790122476 1035.72937027 550.438331669 1009.88172516 458.000013644 c 1
 930.839549288 175.323361222 743.536277304 -24 525 -24 c 0
 235 -24 -3.7607421875 327.016601562 0 758 c 0
 3.7607421875 1188.98339844 235 1540 525 1540 c 0
EndSplineSet
Fore
SplineSet
1014 433 m 5
 934.959960938 150.3203125 743.54 -24 525 -24 c 4
 235 -24 -3.7607421875 327.016601562 0 758 c 4
 3.7607421875 1188.98339844 235 1540 525 1540 c 4
 727.19 1540 892.1796875 1369.38964844 980 1120 c 5
 1019.859375 1006.81347656 1030 876 980 876 c 5
 13 876 l 1029
EndSplineSet
EndChar

StartChar: h
Encoding: 104 104 94
Width: 944
VWidth: 0
Flags: HW
LayerCount: 2
Back
SplineSet
420 1540 m 7
 710 1540 945 1305 945 1015 c 7
 945 725 710 490 420 490 c 7
 130 490 -105 725 -105 1015 c 7
 -105 1305 130 1540 420 1540 c 7
EndSplineSet
Fore
SplineSet
0 2520 m 1
 0 0 l 1
 1 1068 l 17
 1 1329 211 1540 472 1540 c 5
 733 1540 944 1329 944 1068 c 3
 944 637 944 0 944 0 c 1024
EndSplineSet
EndChar

StartChar: i
Encoding: 105 105 95
Width: 0
VWidth: 0
Flags: HW
LayerCount: 2
Back
SplineSet
0.5 2397.5 m 3
 29.75 2397.5 53 2374.25 53 2345 c 3
 53 2315.75 29.75 2292.5 0.5 2292.5 c 3
 -28.75 2292.5 -52 2315.75 -52 2345 c 3
 -52 2374.25 -28.75 2397.5 0.5 2397.5 c 3
0 0 m 25
 0 1540 l 1049
EndSplineSet
Fore
SplineSet
44.4724141162 2373.90532256 m 5
 49.8739942103 2365.64388053 53 2355.72529585 53 2345 c 7
 53 2315.75 29.75 2292.5 0.5 2292.5 c 7
 -28.75 2292.5 -52 2315.75 -52 2345 c 7
 -52 2374.25 -28.75 2397.5 0.5 2397.5 c 7
 19.0247041478 2397.5 35.1428184993 2388.17446454 44.4724141162 2373.90532256 c 1029
0 0 m 25
 0 1540 l 1049
EndSplineSet
EndChar

StartChar: j
Encoding: 106 106 96
Width: 453
VWidth: 0
Flags: HW
LayerCount: 2
Back
SplineSet
453.5 2397.5 m 3
 482.75 2397.5 506 2374.25 506 2345 c 3
 506 2315.75 482.75 2292.5 453.5 2292.5 c 3
 424.25 2292.5 401 2315.75 401 2345 c 3
 401 2374.25 424.25 2397.5 453.5 2397.5 c 3
453 1540 m 1
 453 -55 l 17
 453 -210 328 -335 173 -335 c 1
 18 -335 -107 -210 -107 -55 c 9
 -107 0 l 1049
EndSplineSet
Fore
SplineSet
498.836361649 2371.70113425 m 1
 503.396681533 2363.90345832 506 2354.78764122 506 2345 c 3
 506 2315.75 482.75 2292.5 453.5 2292.5 c 3
 424.25 2292.5 401 2315.75 401 2345 c 3
 401 2374.25 424.25 2397.5 453.5 2397.5 c 3
 472.962358779 2397.5 489.76833599 2387.20652142 498.836361649 2371.70113425 c 1025
453 1540 m 1
 453 -55 l 17
 453 -210 328 -335 173 -335 c 1
 18 -335 -107 -210 -107 -55 c 9
 -107 0 l 1049
EndSplineSet
EndChar

StartChar: u
Encoding: 117 117 97
Width: 944
VWidth: 0
Flags: HW
LayerCount: 2
Fore
SplineSet
944 0 m 1
 944 1435 l 1
 943 448 l 17
 943 187 733 -24 472 -24 c 1
 211 -24 0 187 0 448 c 3
 0 879 0 1435 0 1435 c 1024
EndSplineSet
EndChar

StartChar: l
Encoding: 108 108 98
Width: 0
VWidth: 0
Flags: HW
LayerCount: 2
Fore
SplineSet
1 2520 m 1
 1 0 l 1
 0 0 l 1
 0 2520 l 1
 1 2520 l 1
EndSplineSet
EndChar

StartChar: n
Encoding: 110 110 99
Width: 944
VWidth: 0
Flags: HW
LayerCount: 2
Fore
SplineSet
0 1516 m 1
 0 0 l 1
 1 1068 l 17
 1 1329 211 1540 472 1540 c 5
 733 1540 944 1329 944 1068 c 3
 944 637 944 0 944 0 c 1024
EndSplineSet
EndChar

StartChar: x
Encoding: 120 120 100
Width: 1034
VWidth: 0
Flags: HW
LayerCount: 2
Fore
SplineSet
0 0 m 29
 1004 1435 l 5
 518 739 l 29
 1034 0 l 5
 31 1435 l 1053
EndSplineSet
EndChar

StartChar: k
Encoding: 107 107 101
Width: 1004
VWidth: 0
Flags: HW
LayerCount: 2
Fore
SplineSet
1108 0 m 25
 545 975 l 25
 1004 1435 l 25
 1 431 l 25
 0 0 l 25
 0 2520 l 1049
EndSplineSet
EndChar

StartChar: z
Encoding: 122 122 102
Width: 1034
VWidth: 0
Flags: HW
LayerCount: 2
Fore
SplineSet
30 1435 m 1
 1004 1435 l 1
 0 0 l 25
 1034 0 l 1049
EndSplineSet
EndChar

StartChar: v
Encoding: 118 118 103
Width: 1101
VWidth: 0
Flags: HW
LayerCount: 2
Fore
SplineSet
1101 1435 m 1
 578 0 l 1
 523 0 l 1
 0 1435 l 1029
EndSplineSet
EndChar

StartChar: o
Encoding: 111 111 104
Width: 1055
VWidth: 0
Flags: HW
LayerCount: 2
Fore
SplineSet
525 1540 m 0
 815 1540 1050 1189 1050 758 c 0
 1050 327 815 -24 525 -24 c 0
 235 -24 -3.7607421875 327.016601562 0 758 c 0
 3.7607421875 1188.98339844 235 1540 525 1540 c 0
EndSplineSet
EndChar

StartChar: r
Encoding: 114 114 105
Width: 782
VWidth: 0
Flags: HW
LayerCount: 2
Fore
SplineSet
0 0 m 25
 0 1540 l 25
 1 1120 l 17
 1 1352 188 1540 420 1540 c 1
 652 1540 840 1352 840 1120 c 9
 840 1065 l 1049
EndSplineSet
EndChar

StartChar: f
Encoding: 102 102 106
Width: 1049
VWidth: 0
Flags: HW
LayerCount: 2
Fore
SplineSet
314 1 m 17
 314 1591 l 1
 874 1590 l 1
 -106 1590 l 1
 314 1591 l 1
 315 2101 l 17
 315 2333 502 2521 734 2521 c 1
 966 2521 1154 2333 1154 2101 c 9
 1154 2046 l 1049
EndSplineSet
EndChar

StartChar: t
Encoding: 116 116 107
Width: 875
VWidth: 0
Flags: HW
LayerCount: 2
Fore
SplineSet
875 335 m 25
 875 280 l 17
 875 125 750 0 595 0 c 1
 440 0 315 125 315 280 c 9
 315 1539 l 9
 -105 1540 l 25
 875 1540 l 25
 315 1541 l 25
 315 1960 l 1049
EndSplineSet
EndChar

StartChar: y
Encoding: 121 121 108
Width: 1101
VWidth: 0
Flags: HW
LayerCount: 2
Back
SplineSet
0 1435 m 1
 523 0 l 1
 578 0 l 1
 1101 1435 l 1
 1101 1435 579.341796875 0.939453125 579 0 c 0
 476.393554688 -281.908203125 315 -363 175 -363 c 1
 20 -363 -105 -238 -105 -83 c 1033
EndSplineSet
Fore
SplineSet
0 1435 m 1
 523 0 l 1
 578 0 l 1
 1101 1435 l 1
 1101 1435 579.341796875 0.939453125 579 0 c 0
 476.393554688 -281.908203125 358 -433 185 -433 c 1
 30 -433 -95 -308 -95 -153 c 1033
EndSplineSet
EndChar

StartChar: w
Encoding: 119 119 109
Width: 1602
VWidth: 0
Flags: HW
LayerCount: 2
Fore
SplineSet
0 1435 m 25
 385 0 l 25
 415 0 l 25
 786 1385 l 25
 816 1385 l 25
 1187 0 l 25
 1217 0 l 25
 1602 1435 l 1049
EndSplineSet
EndChar

StartChar: yen
Encoding: 165 165 110
Width: 1654
VWidth: 0
Flags: HW
LayerCount: 2
Fore
SplineSet
0 708 m 25
 1654 708 l 1049
0 1233 m 25
 1654 1233 l 1049
EndSplineSet
Refer: 21 89 N 1 0 0 1 0 0 2
EndChar

StartChar: cent
Encoding: 162 162 111
Width: 1008
VWidth: -24
Flags: HW
LayerCount: 2
Fore
SplineSet
545 1755 m 25
 525 -234 l 1049
EndSplineSet
Refer: 88 99 N 1 0 0 1 0 0 2
EndChar

StartChar: mu
Encoding: 181 181 112
Width: 1155
VWidth: 0
Flags: HW
LayerCount: 2
Fore
SplineSet
0 -1004 m 17
 0 1435 l 0
 0 1435 1 879 1 448 c 3
 1 187 211 -24 472 -24 c 1
 733 -24 943 187 943 448 c 9
 944 1435 l 1
 945 268 l 1
 945 16 1055 -24 1115 -24 c 3
 1182 -24 1260 -12 1260 -12 c 1025
EndSplineSet
EndChar

StartChar: sterling
Encoding: 163 163 113
Width: 1681
VWidth: 0
Flags: HW
LayerCount: 2
Fore
SplineSet
1681 1835 m 25
 1681 1890 l 17
 1681 2238 1399 2520 1051 2520 c 1
 703 2520 420 2238 420 1890 c 9
 420 1381 l 1
 0 1380 l 1
 1050 1380 l 1
 420 1381 l 1
 420 420 l 1
 420 188 232 1 0 1 c 1
 0 0 l 1
 1681 0 l 1033
EndSplineSet
EndChar

StartChar: m
Encoding: 109 109 114
Width: 1604
VWidth: 0
Flags: HW
LayerCount: 2
Fore
SplineSet
0 1516 m 1
 0 0 l 1
 0.849609375 1068 l 17
 0.849609375 1329 179.349609375 1540 401.200195312 1540 c 1
 623.049804688 1540 802.400390625 1329 802.400390625 1068 c 3
 802.400390625 637 802.400390625 0 802.400390625 0 c 1
 802.400390625 0 803.399414062 637 803.399414062 1068 c 3
 803.399414062 1329 982.75 1540 1204.59960938 1540 c 1
 1426.45019531 1540 1604.95019531 1329 1604.95019531 1068 c 9
 1604 0 l 1049
EndSplineSet
EndChar

StartChar: g
Encoding: 103 103 115
Width: 959
VWidth: 0
Flags: HW
LayerCount: 2
Back
SplineSet
-196 -105 m 24
 -196 -22 -196 -76 -196 0 c 0
 -196 116 -102 210 14 210 c 1032
-196 280 m 0
 113 280 364 155 364 0 c 0
 364 -155 113 -280 -196 -280 c 0
 -505 -280 -756 -155 -756 0 c 0
 -756 155 -505 280 -196 280 c 0
-196 330 m 3
 -14 330 134 182 134 0 c 3
 134 -182 -14 -330 -196 -330 c 0
 -378 -330 -526 -182 -526 0 c 0
 -526 182 -378 330 -196 330 c 3
EndSplineSet
Fore
SplineSet
158.723632812 104 m 1
 63.6171875 161.966796875 0 266.676757812 0 386 c 4
 0 535.353515625 99.666015625 661.810546875 236 702.372070312 c 1025
463.900390625 1472 m 24
 463.900390625 1555 463.900390625 1426 463.900390625 1502 c 0
 463.900390625 1618 557.900390625 1712 673.900390625 1712 c 0
 692.563476562 1712 710.657226562 1709.56640625 727.881835938 1705 c 1024
529.403320312 138.934570312 m 0
 837.227539062 112.002929688 1076.37792969 -34.3974609375 1062.86914062 -188.807617188 c 0
 1049.36035156 -343.217773438 788.420898438 -445.865234375 480.596679688 -418.934570312 c 0
 172.772460938 -392.002929688 -66.3779296875 -245.602539062 -52.869140625 -91.1923828125 c 0
 -39.3603515625 63.2177734375 221.579101562 165.865234375 529.403320312 138.934570312 c 0
338.967773438 1474.40429688 m 0
 538.571289062 1509.59960938 733.59375 1352.71875 773.817382812 1124.60058594 c 0
 813.15234375 901.517578125 690.073242188 691.8203125 497.9453125 649.755859375 c 0
 493.609375 648.806640625 489.23828125 647.942382812 484.833007812 647.166015625 c 0
 285.229492188 611.970703125 90.20703125 768.8515625 49.9833984375 996.969726562 c 0
 9.759765625 1225.08691406 139.365234375 1439.20898438 338.967773438 1474.40429688 c 0
EndSplineSet
EndChar

StartChar: udieresis
Encoding: 252 252 117
Width: 944
VWidth: 0
Flags: HW
LayerCount: 2
Fore
SplineSet
799.47265625 2173.90527344 m 1
 804.874023438 2165.64355469 808 2155.72558594 808 2145 c 3
 808 2115.75 784.75 2092.5 755.5 2092.5 c 3
 726.25 2092.5 703 2115.75 703 2145 c 3
 703 2174.25 726.25 2197.5 755.5 2197.5 c 3
 774.024414062 2197.5 790.142578125 2188.17480469 799.47265625 2173.90527344 c 1025
234.47265625 2173.90527344 m 1
 239.874023438 2165.64355469 243 2155.72558594 243 2145 c 3
 243 2115.75 219.75 2092.5 190.5 2092.5 c 3
 161.25 2092.5 138 2115.75 138 2145 c 3
 138 2174.25 161.25 2197.5 190.5 2197.5 c 3
 209.024414062 2197.5 225.142578125 2188.17480469 234.47265625 2173.90527344 c 1025
944 0 m 1
 944 1435 l 1
 943 448 l 17
 943 187 733 -24 472 -24 c 1
 211 -24 0 187 0 448 c 3
 0 879 0 1435 0 1435 c 1024
EndSplineSet
EndChar

StartChar: eacute
Encoding: 233 233 118
Width: 964
VWidth: 0
Flags: HW
LayerCount: 2
Fore
SplineSet
374 2020 m 25
 668 2236 l 25
 374 2020 l 25
1014 433 m 1
 934.959960938 150.3203125 743.54 -24 525 -24 c 0
 235 -24 -3.7607421875 327.016601562 0 758 c 0
 3.7607421875 1188.98339844 235 1540 525 1540 c 0
 727.19 1540 892.1796875 1369.38964844 980 1120 c 1
 1019.859375 1006.81347656 1030 876 980 876 c 1
 13 876 l 1025
EndSplineSet
EndChar

StartChar: arrowright
Encoding: 8594 8594 119
Width: 2520
VWidth: 0
Flags: HW
LayerCount: 2
Back
SplineSet
0 1260 m 25
 2520 1260 l 1025
1320 1757 m 25
 2520 1260 l 25
 1320 763 l 1049
EndSplineSet
Fore
SplineSet
0 1260 m 29
 2520 1260 l 1029
1940 1635 m 29
 2520 1260 l 29
 1940 885 l 1053
EndSplineSet
EndChar

StartChar: arrowup
Encoding: 8593 8593 120
Width: 750
VWidth: 0
Flags: HW
LayerCount: 2
Fore
SplineSet
375 0 m 29
 375 2520 l 1029
0 1940 m 29
 375 2520 l 29
 750 1940 l 1053
EndSplineSet
EndChar

StartChar: arrowleft
Encoding: 8592 8592 121
Width: 2520
VWidth: 0
Flags: HW
LayerCount: 2
Fore
SplineSet
2520 1260 m 1
 0 1260 l 1025
580 1635 m 25
 0 1260 l 25
 580 885 l 1049
EndSplineSet
EndChar

StartChar: arrowdown
Encoding: 8595 8595 122
Width: 750
VWidth: 0
Flags: HW
LayerCount: 2
Fore
SplineSet
375 2520 m 25
 375 0 l 1025
0 580 m 25
 375 0 l 25
 750 580 l 1049
EndSplineSet
EndChar

StartChar: arrowboth
Encoding: 8596 8596 123
Width: 2520
VWidth: 0
Flags: HW
LayerCount: 2
Fore
SplineSet
2520 1260 m 29
 0 1260 l 1029
2520 1260 m 1029
1940 1635 m 29
 2520 1260 l 29
 1940 885 l 1053
580 1635 m 29
 0 1260 l 29
 580 885 l 1053
EndSplineSet
EndChar

StartChar: arrowupdn
Encoding: 8597 8597 124
Width: 2520
VWidth: 0
Flags: HW
LayerCount: 2
Fore
SplineSet
375 0 m 25
 375 2520 l 1025
375 0 m 1025
750 580 m 25
 375 0 l 25
 0 580 l 1049
750 1940 m 25
 375 2520 l 25
 0 1940 l 1049
EndSplineSet
EndChar

StartChar: uni2197
Encoding: 8599 8599 125
Width: 1782
VWidth: 0
Flags: HW
LayerCount: 2
Fore
SplineSet
0 369.045898438 m 21
 890.954101562 1260 l 5
 1781.90820312 2150.95410156 l 1029
1106.62207031 2005.99804688 m 29
 1781.90820312 2150.95410156 l 29
 1636.95214844 1475.66796875 l 1053
EndSplineSet
EndChar

StartChar: uni2196
Encoding: 8598 8598 126
Width: 1782
VWidth: 0
Flags: HW
LayerCount: 2
Fore
SplineSet
1781.90820312 369.045898438 m 21
 890.954101562 1260 l 5
 0 2150.95410156 l 1029
144.956054688 1475.66796875 m 29
 0 2150.95410156 l 29
 675.286132812 2005.99804688 l 1053
EndSplineSet
EndChar

StartChar: uni2198
Encoding: 8600 8600 127
Width: 1782
VWidth: 0
Flags: HW
LayerCount: 2
Fore
SplineSet
0 2150.95410156 m 21
 890.954101562 1260 l 5
 1781.90820312 369.045898438 l 1029
1636.95214844 1044.33203125 m 29
 1781.90820312 369.045898438 l 29
 1106.62207031 514.001953125 l 1053
EndSplineSet
EndChar

StartChar: uni2199
Encoding: 8601 8601 128
Width: 1782
VWidth: 0
Flags: HW
LayerCount: 2
Fore
SplineSet
1781.90820312 2150.95410156 m 21
 890.954101562 1260 l 5
 -0 369.045898438 l 1029
675.286132812 514.001953125 m 29
 -0 369.045898438 l 29
 144.956054688 1044.33203125 l 1053
EndSplineSet
EndChar
